<?xml version="1.0" encoding="UTF-8"?>
<svg id="Capa_2" data-name="Capa 2" xmlns="http://www.w3.org/2000/svg" viewBox="0 0 512.83 103.92">
  <defs>
    <style>
      .cls-1 {
        fill: #fff;
        stroke: #fff;
        stroke-miterlimit: 10;
        stroke-width: .25px;
      }
    </style>
  </defs>
  <g id="vector">
    <g>
      <path class="cls-1" d="m37,39.57c0,1.69-.5,3.42-1.49,5.2s-2.58,3.45-4.76,4.99c-.68.47-1.51.98-2.48,1.53s-2.03,1.11-3.16,1.67-2.33,1.11-3.59,1.63-2.52.99-3.8,1.39c-1.28.4-2.53.72-3.74.97s-2.37.37-3.45.37c-.54,0-1-.04-1.39-.12-.39-.08-.74-.23-1.07-.44s-.64-.5-.95-.88c-.3-.38-.63-.84-.98-1.41-.56.42-1.15.73-1.78.93-.62.2-1.25.3-1.88.3h-.98c-.19,0-.36-.07-.53-.19-.16-.13-.31-.29-.44-.47s-.23-.39-.3-.62-.11-.44-.11-.65c0-1.2.17-2.34.51-3.43s.73-2.17,1.18-3.25c.66-1.99,1.32-4.08,2-6.28s1.34-4.39,1.97-6.59,1.24-4.38,1.81-6.52,1.11-4.18,1.6-6.1l.98-4.08c0-.07-.01-.27-.04-.6-.02-.33-.05-.69-.09-1.07s-.06-.74-.09-1.07l-.04-.46.18-.6-.04.04c.12-.42.28-.9.49-1.44.21-.54.47-1.04.77-1.51.3-.47.64-.86,1-1.18s.76-.47,1.18-.47c.4,0,.91.03,1.53.09.62.06,1.18.09,1.67.09.23,0,.46-.01.69-.04.22-.02.5-.08.84-.18.34-.09.79-.23,1.34-.4s1.27-.42,2.16-.72c1.34-.47,2.56-.86,3.67-1.18s2.17-.57,3.16-.77c1-.2,1.96-.35,2.9-.44.94-.09,1.9-.14,2.88-.14,1.24,0,2.44.12,3.6.35,1.16.23,2.19.62,3.09,1.14s1.62,1.22,2.16,2.07c.54.86.81,1.89.81,3.11,0,2.09-.55,3.96-1.65,5.62-1.1,1.66-2.66,3.21-4.68,4.64s-4.44,2.76-7.26,3.99-5.97,2.44-9.44,3.64c2.77.42,5.15.92,7.15,1.49s3.66,1.25,4.97,2.02,2.29,1.65,2.92,2.64.95,2.11.95,3.38Zm-11.95-3.23c-.23-.05-.66-.13-1.28-.25s-1.35-.25-2.18-.39-1.73-.29-2.69-.44-1.88-.3-2.74-.46-1.66-.3-2.37-.44-1.24-.26-1.56-.35c-.89,2.88-1.67,5.64-2.34,8.28s-1.34,5.29-2.02,7.96l2.32.25c.54.05,1.01.09,1.42.12s.65.05.72.05c.94-.09,1.97-.28,3.09-.54s2.29-.61,3.5-1.02,2.43-.89,3.67-1.44,2.46-1.14,3.66-1.78c.45-.28.91-.62,1.41-1.02s.94-.84,1.34-1.32.73-.99.98-1.53.39-1.09.39-1.65c0-.94-.49-1.75-1.48-2.44s-2.26-1.22-3.83-1.6Zm-11.11-8.16c1.31-.42,2.7-.92,4.15-1.49s2.95-1.2,4.48-1.88,3.09-1.4,4.68-2.16,3.16-1.53,4.73-2.3h-.04c.56-.3,1.12-.67,1.67-1.11.55-.43,1.04-.9,1.48-1.41.43-.5.79-1.03,1.05-1.58.27-.55.4-1.1.4-1.63,0-.35-.08-.7-.25-1.05s-.42-.67-.77-.95-.81-.5-1.39-.67c-.57-.16-1.28-.25-2.13-.25-1.17,0-2.5.15-3.97.44-1.48.29-2.91.66-4.29,1.11-1.38.45-2.61.94-3.69,1.48-1.08.54-1.79,1.05-2.14,1.55-.07.12-.17.38-.3.77-.13.4-.28.84-.44,1.32-.16.48-.33.94-.51,1.39-.18.45-.35.77-.51.98-.05.23-.14.59-.28,1.07s-.31,1.05-.51,1.71-.42,1.38-.67,2.18-.5,1.63-.76,2.5Z"/>
      <path class="cls-1" d="m43.54,41.75c0-1.01.27-1.86.81-2.57s1.25-1.17,2.14-1.41c.26-.52.66-1.21,1.2-2.09s1.21-1.83,2-2.87,1.71-2.07,2.72-3.11,2.14-1.99,3.38-2.85,2.55-1.55,3.97-2.09,2.92-.81,4.52-.81c1.36,0,2.54.16,3.55.49s1.84.79,2.5,1.37,1.15,1.28,1.48,2.09.49,1.68.49,2.62c0,.8-.11,1.56-.32,2.29-.33,1.31-.94,2.46-1.83,3.45s-1.94,1.85-3.15,2.58-2.52,1.35-3.94,1.85-2.84.9-4.25,1.23-2.78.58-4.1.76-2.45.31-3.41.4c-.21.42-.39.96-.54,1.6s-.23,1.27-.23,1.88c0,1.36.54,2.41,1.62,3.16s2.57,1.12,4.46,1.12c1.1,0,2.16-.12,3.16-.37s1.96-.56,2.87-.95,1.75-.81,2.55-1.27,1.52-.91,2.18-1.35c.84-.56,1.65-1.04,2.41-1.42s1.44-.58,2.02-.58.96.15,1.12.44.25.6.25.93c0,.19,0,.37-.02.54s-.03.32-.05.44c-.12.61-.35,1.22-.7,1.83s-.8,1.14-1.34,1.58c-2.44,1.92-4.94,3.29-7.51,4.11s-5.3,1.23-8.21,1.23c-.56,0-1.22-.04-1.99-.11s-1.55-.21-2.37-.42-1.63-.52-2.43-.91-1.51-.93-2.13-1.58-1.12-1.46-1.51-2.43-.58-2.12-.58-3.48c0-1.1.15-2.33.46-3.69-.3-.05-.59-.21-.86-.47s-.4-.66-.4-1.18Zm22.01-9.74c.05-.12.07-.22.07-.32v-.32c0-.63-.23-1.11-.7-1.42s-1.03-.47-1.69-.47c-1.03,0-2.04.27-3.04.81s-1.93,1.21-2.81,2.02-1.66,1.68-2.34,2.6-1.21,1.76-1.58,2.51c1.69-.14,3.23-.37,4.64-.69s2.63-.71,3.67-1.2,1.89-1.02,2.53-1.62,1.06-1.24,1.25-1.92Z"/>
      <path class="cls-1" d="m90.34,7.12c.12-.94.3-1.8.56-2.6.26-.8.6-1.46,1.04-1.99s.99-.79,1.67-.79c.38,0,.79.07,1.25.21s.89.33,1.3.58.76.54,1.04.9.42.74.42,1.16c0,.19-.04.4-.11.65s-.13.49-.18.72l-8.79,35.23c-.35,1.41-.64,2.75-.88,4.03s-.41,2.33-.53,3.15v.84c0,.7-.05,1.47-.14,2.3s-.27,1.61-.53,2.32-.62,1.31-1.07,1.79c-.46.48-1.05.72-1.78.72-.63,0-1.18-.14-1.65-.4-.47-.27-.86-.62-1.16-1.04s-.53-.87-.67-1.35-.21-.93-.21-1.35c0-.38.04-.84.11-1.39s.16-1.12.26-1.72.22-1.2.33-1.79.23-1.12.35-1.56l9.07-36c.07-.8.16-1.66.28-2.6Z"/>
      <path class="cls-1" d="m108.48,7.12c.12-.94.3-1.8.56-2.6.26-.8.6-1.46,1.04-1.99s.99-.79,1.67-.79c.38,0,.79.07,1.25.21s.89.33,1.3.58.76.54,1.04.9.42.74.42,1.16c0,.19-.04.4-.11.65s-.13.49-.18.72l-8.79,35.23c-.35,1.41-.64,2.75-.88,4.03s-.41,2.33-.53,3.15v.84c0,.7-.05,1.47-.14,2.3s-.27,1.61-.53,2.32-.62,1.31-1.07,1.79c-.46.48-1.05.72-1.78.72-.63,0-1.18-.14-1.65-.4-.47-.27-.86-.62-1.16-1.04s-.53-.87-.67-1.35-.21-.93-.21-1.35c0-.38.04-.84.11-1.39s.16-1.12.26-1.72.22-1.2.33-1.79.23-1.12.35-1.56l9.07-36c.07-.8.16-1.66.28-2.6Z"/>
      <path class="cls-1" d="m116.25,41.86c.35-1.43.9-2.95,1.63-4.55s1.71-3.23,2.9-4.87,2.63-3.25,4.31-4.82,3.62-3.04,5.82-4.39c.35-.21.89-.44,1.62-.69s1.48-.39,2.25-.44c.91-.98,2.14-1.48,3.69-1.48,1.83,0,3.37.46,4.62,1.39s2.29,2.19,3.11,3.78c.26.52.5,1.02.72,1.51s.41,1.01.56,1.56.28,1.14.37,1.78.14,1.35.14,2.14c0,1.85-.29,3.74-.88,5.66s-1.42,3.8-2.5,5.62-2.38,3.58-3.92,5.26-3.24,3.18-5.12,4.52c-1.27.91-2.67,1.62-4.2,2.13-1.54.5-3.25.76-5.15.76s-3.37-.24-4.69-.72c-1.32-.48-2.43-1.17-3.3-2.06s-1.54-1.96-1.97-3.2-.65-2.62-.65-4.15.21-3.06.63-4.75Zm5.84.46c-.14.54-.24,1.05-.3,1.53s-.09.94-.09,1.39c0,.77.1,1.49.3,2.16s.52,1.24.97,1.72,1,.86,1.67,1.12,1.48.4,2.44.4c1.78,0,3.44-.45,4.97-1.35s2.9-2.03,4.1-3.39,2.2-2.82,3.01-4.38,1.38-2.99,1.71-4.31c.21-.82.39-1.59.54-2.32s.23-1.39.23-2-.11-1.18-.33-1.71-.51-1.12-.86-1.78c-.21-.4-.42-.81-.63-1.25s-.4-.86-.56-1.28c-.19.33-.39.62-.6.86s-.53.47-.95.67-1,.38-1.72.54-1.68.3-2.85.42c-.77.26-1.56.66-2.36,1.2s-1.58,1.17-2.34,1.9-1.49,1.51-2.18,2.36-1.31,1.71-1.86,2.58-1.03,1.74-1.44,2.58-.7,1.62-.86,2.32Z"/>
      <path class="cls-1" d="m220.66,55.71c-.49,0-.93-.09-1.3-.28s-.69-.43-.93-.74-.43-.66-.56-1.05-.19-.8-.19-1.2c0-.35.09-.84.28-1.46s.43-1.32.72-2.09.62-1.58.97-2.43.69-1.65,1.02-2.43.61-1.49.84-2.14.4-1.17.49-1.55c.09-.42.21-.93.35-1.51s.3-1.22.47-1.92.35-1.42.53-2.18.36-1.53.54-2.3c-.33.07-.73.13-1.21.19s-.99.11-1.53.16c-.77.07-1.54.18-2.29.32s-1.52.3-2.3.47-1.6.36-2.44.56-1.75.4-2.71.62c-1.41.3-2.81.64-4.22,1.02s-2.87.56-4.39.56c-.47,0-.9-.12-1.3-.37s-.84-.43-1.34-.54c-.47.75-.91,1.55-1.34,2.41s-.81,1.73-1.16,2.64-.67,1.79-.95,2.67-.53,1.71-.74,2.48c-.12.42-.22.97-.3,1.63s-.16,1.35-.23,2.04-.14,1.35-.21,1.99-.14,1.14-.21,1.51c-.07.35-.21.7-.42,1.04s-.47.65-.77.93-.64.51-1.02.69-.75.26-1.12.26c-.66,0-1.19-.19-1.6-.58s-.74-.87-.98-1.44-.42-1.2-.51-1.88-.14-1.3-.14-1.86c0-1.43.18-2.91.53-4.45s.83-3.09,1.42-4.68,1.3-3.18,2.11-4.78,1.68-3.21,2.62-4.8c.77-1.43,1.73-3.08,2.88-4.96s2.43-3.8,3.85-5.78,2.95-3.92,4.61-5.82,3.37-3.59,5.15-5.08c1.78-1.49,3.61-2.69,5.48-3.6s3.74-1.37,5.59-1.37c1.95,0,3.57.35,4.87,1.05s2.34,1.65,3.11,2.85,1.32,2.59,1.63,4.18c.32,1.59.47,3.28.47,5.06,0,1.57-.1,3.19-.3,4.85s-.45,3.29-.74,4.89-.61,3.13-.95,4.61-.65,2.81-.93,4.01l-1.23,4.78c-.05.14-.13.42-.26.84s-.29.93-.49,1.53-.42,1.24-.67,1.93-.49,1.37-.74,2.04-.48,1.28-.7,1.85-.42,1.02-.58,1.37l.04-.04c-.16.61-.34,1.23-.53,1.86s-.45,1.2-.77,1.71-.75.91-1.27,1.23-1.18.47-2,.47Zm1.79-44.02c-1.05,0-2.1.22-3.15.65-1.04.43-2.07,1-3.08,1.71s-1.99,1.52-2.94,2.46c-.95.94-1.85,1.9-2.71,2.88s-1.66,1.97-2.41,2.97-1.43,1.92-2.04,2.76c-.09.14-.22.32-.37.54s-.3.47-.46.74-.3.55-.44.84-.26.56-.35.79h3.62c1.31,0,2.81-.09,4.5-.28s3.36-.41,5.01-.67,3.17-.52,4.55-.79,2.43-.47,3.13-.62c.09-.3.18-.71.26-1.23s.16-1.09.23-1.72.12-1.31.16-2.02.05-1.45.05-2.2c0-.61-.02-1.31-.07-2.09-.05-.79-.19-1.53-.42-2.23s-.59-1.29-1.07-1.78c-.48-.48-1.15-.72-2.02-.72Z"/>
      <path class="cls-1" d="m243.9,44.39c0-1.97.22-4.01.67-6.13s.91-4.15,1.41-6.1c-.61-.02-1.23-.12-1.86-.28s-1.21-.39-1.72-.67-.94-.63-1.27-1.04-.49-.88-.49-1.42c0-.21.05-.48.14-.81s.23-.65.4-.97.4-.59.69-.81.6-.33.95-.33h4.71c.45,0,.75-.19.91-.58s.29-.77.39-1.14c.3-1.36.59-2.54.86-3.53s.5-1.84.69-2.53c.19-.69.33-1.25.44-1.69.11-.43.16-.78.16-1.04,0-.3-.01-.6-.04-.88s-.04-.67-.04-1.16v-.35c0-.19.02-.43.05-.74.04-.3.15-.74.33-1.3.14-.44.4-.87.77-1.27.38-.4.93-.6,1.65-.6.63,0,1.17.13,1.62.39.45.26.81.6,1.09,1.02s.49.9.63,1.44c.14.54.21,1.08.21,1.62,0,.59-.06,1.11-.18,1.58l-2.57,9.84c1.27-.21,2.39-.41,3.38-.6l2.95-.56c1.08-.21,2.01-.41,2.79-.6s1.46-.35,2.02-.47,1.04-.23,1.42-.32.71-.12.97-.12c.38,0,.76.03,1.14.09s.73.16,1.02.3.53.34.72.6.28.6.28,1.02c0,.56-.11,1.06-.33,1.49s-.51.81-.86,1.12-.75.57-1.2.77-.89.35-1.34.44c-.38.07-.86.18-1.46.32s-1.25.29-1.97.46-1.46.34-2.23.53-1.52.38-2.25.56c-1.08.28-2,.52-2.76.7s-1.41.33-1.95.42-.98.16-1.32.21-.62.07-.83.07c-.45,1.34-.83,2.65-1.16,3.94s-.6,2.49-.83,3.6-.39,2.11-.49,2.99-.16,1.56-.16,2.06c0,.63.06,1.24.18,1.81s.32,1.07.6,1.49.66.76,1.14,1,1.08.37,1.81.37c1.24,0,2.46-.34,3.66-1.02s2.34-1.54,3.43-2.58,2.12-2.19,3.09-3.43,1.87-2.43,2.69-3.55c.28-.42.64-.63,1.09-.63.14,0,.31.02.51.07s.39.13.58.25.35.27.47.46.19.41.19.67c0,.19-.01.33-.04.42-.38,1.45-.96,2.91-1.74,4.38s-1.59,2.94-2.41,4.41c-.28.52-.65,1.02-1.11,1.51s-.96.97-1.49,1.42-1.1.89-1.69,1.3-1.14.78-1.65,1.11c-.89.56-1.86.95-2.92,1.16s-2.07.32-3.06.32c-1.52,0-2.88-.28-4.06-.83s-2.18-1.3-2.99-2.25-1.42-2.06-1.85-3.32-.63-2.62-.63-4.08Z"/>
      <path class="cls-1" d="m293.96,53.81c0-.68.08-1.49.25-2.44s.25-2.13.25-3.53c-.77.56-1.63,1.23-2.57,2s-1.91,1.51-2.92,2.21-2.01,1.29-3.01,1.78-1.93.72-2.79.72c-.7,0-1.37-.11-2-.32s-1.17-.49-1.62-.84c-1.24-.98-2.14-1.97-2.69-2.95s-.83-2.13-.83-3.45c0-.59.05-1.2.16-1.83s.26-1.36.47-2.18c.89-3.7,2.42-7.13,4.59-10.28s4.86-5.84,8.07-8.07c1.24-.87,2.48-1.42,3.73-1.67s2.47-.37,3.69-.37c.54,0,1.14.04,1.81.11s1.27.14,1.81.21c.54-.12.98-.2,1.32-.25s.7-.07,1.07-.07c.7,0,1.29.09,1.76.28s.84.44,1.12.76.49.68.62,1.09.19.84.19,1.28c0,.61-.09,1.19-.28,1.74s-.38,1.11-.56,1.67l-4.64,18.53c-.09,1.01-.18,1.93-.25,2.78s-.21,1.63-.42,2.36l-.26.79c-.11.32-.28.62-.51.91s-.53.54-.88.76-.81.32-1.37.32c-.73,0-1.31-.05-1.74-.14-.43-.09-.77-.23-1-.4s-.39-.39-.46-.63-.11-.53-.11-.86Zm-11.67-10.62c-.09.33-.19.8-.3,1.41s-.16,1.22-.16,1.83.09,1.2.28,1.71.6.76,1.23.76c.98,0,1.9-.22,2.76-.65s1.66-.96,2.41-1.56c1.01-.82,2.03-1.74,3.08-2.76s2.03-2.09,2.95-3.22,1.75-2.28,2.46-3.46,1.24-2.36,1.56-3.53c.19-.68.35-1.46.47-2.36s.19-1.69.19-2.39c0-.3-.07-.6-.21-.9s-.41-.44-.81-.44c-1.15,0-2.3.22-3.46.67s-2.28,1.04-3.36,1.79-2.1,1.63-3.08,2.65-1.86,2.11-2.65,3.27-1.48,2.36-2.06,3.59-1.01,2.43-1.32,3.6Z"/>
      <path class="cls-1" d="m312.49,51.7c.3-1.64.66-3.45,1.05-5.41s.81-3.96,1.23-5.98.83-4,1.23-5.94.74-3.73,1.02-5.34c-.02-.23-.04-.44-.04-.62v-.58c0-.73.05-1.45.14-2.18s.22-1.39.39-2c.26-.89.54-1.49.86-1.81s.83-.47,1.53-.47,1.22.13,1.63.4.73.63.97,1.07.39.96.46,1.53.11,1.17.11,1.78c0,.33-.01.69-.04,1.09s-.04.71-.04.95c.66-.68,1.35-1.38,2.09-2.09s1.52-1.36,2.36-1.93,1.71-1.05,2.64-1.42,1.89-.56,2.9-.56c.4,0,.79.04,1.18.11s.78.16,1.18.28c.47.12.96.28,1.46.47s.99.47,1.46.83c.77.59,1.42,1.32,1.95,2.2s.79,1.78.79,2.69c0,.35-.07.73-.21,1.14s-.33.79-.58,1.12-.53.62-.86.84-.69.33-1.09.33-.88-.1-1.46-.3-1.05-.46-1.42-.79c-.16-.14-.33-.34-.51-.6s-.34-.52-.49-.77-.29-.5-.42-.72-.23-.37-.3-.44c-.12-.02-.25-.04-.39-.05s-.27-.02-.39-.02c-1.2,0-2.33.3-3.41.91s-2.09,1.35-3.02,2.23-1.8,1.82-2.58,2.81-1.47,1.89-2.06,2.69c-.47,1.9-.99,3.92-1.56,6.06s-1.14,4.39-1.71,6.73v.88c0,.7-.02,1.42-.07,2.14s-.19,1.37-.42,1.93c-.26.35-.63.65-1.11.9s-1.04.37-1.67.37c-.98,0-1.72-.32-2.21-.97s-.74-1.4-.74-2.27c0-.4.06-.81.18-1.23Z"/>
      <path class="cls-1" d="m342.06,43.26c.3-1.27.71-2.53,1.21-3.8s1.13-2.52,1.88-3.76,1.64-2.46,2.67-3.64,2.24-2.31,3.62-3.39c.94-.75,1.93-1.46,2.97-2.13s2.1-1.25,3.18-1.74,2.16-.88,3.25-1.18,2.16-.44,3.22-.44c.77,0,1.46.06,2.06.19s1.17.31,1.71.54c.23-.82.86-3.02,1.88-6.61s2.27-8.58,3.74-14.98c.26-.63.62-1.16,1.09-1.58s1.03-.63,1.69-.63c.47,0,.93.04,1.37.12.45.08.84.25,1.2.49s.63.58.84,1,.32.97.32,1.65l-7.07,28.23c-.21.8-.41,1.87-.6,3.22s-.36,2.77-.53,4.27-.29,2.98-.39,4.45-.14,2.72-.14,3.78c0,1.31-.15,2.61-.46,3.9-.14.56-.29,1.04-.44,1.42s-.36.7-.62.95-.58.42-.97.53-.87.16-1.46.16c-.68,0-1.21-.07-1.58-.21s-.66-.33-.84-.58-.3-.53-.33-.84-.06-.66-.07-1.02-.04-.74-.07-1.12-.13-.76-.3-1.11c-.28.19-.67.43-1.16.74s-.99.62-1.49.93-.98.61-1.42.88-.77.46-.98.58c-.54.3-1.15.63-1.83.97s-1.41.66-2.2.95-1.61.53-2.46.72-1.72.28-2.58.28c-1.05,0-2.08-.18-3.08-.53s-1.89-.89-2.67-1.62-1.41-1.65-1.88-2.76-.7-2.42-.7-3.92c0-.54.03-1.07.09-1.6s.17-1.12.33-1.78Zm6.08-.28c-.19.7-.28,1.38-.28,2.04s.06,1.32.18,1.92.33,1.12.65,1.56.74.8,1.27,1.07,1.21.4,2.06.4c.47,0,.97-.08,1.51-.25s1.07-.37,1.6-.62,1.02-.5,1.48-.77.85-.51,1.18-.72c.89-.59,1.72-1.16,2.48-1.72s1.45-1.17,2.06-1.83,1.14-1.39,1.6-2.2.83-1.74,1.11-2.79c.23-.94.44-1.79.62-2.57s.33-1.53.47-2.27.27-1.49.39-2.27.23-1.63.35-2.57c-.12-.14-.28-.28-.47-.4s-.5-.19-.9-.19c-.94,0-1.97.16-3.09.47s-2.28.77-3.46,1.35-2.34,1.3-3.48,2.14-2.19,1.79-3.16,2.83-1.82,2.19-2.55,3.43-1.25,2.55-1.58,3.94Z"/>
      <path class="cls-1" d="m381.25,41.75c0-1.01.27-1.86.81-2.57s1.25-1.17,2.14-1.41c.26-.52.66-1.21,1.2-2.09s1.21-1.83,2-2.87,1.71-2.07,2.72-3.11,2.14-1.99,3.38-2.85,2.55-1.55,3.97-2.09,2.92-.81,4.52-.81c1.36,0,2.54.16,3.55.49s1.84.79,2.5,1.37,1.15,1.28,1.48,2.09.49,1.68.49,2.62c0,.8-.11,1.56-.32,2.29-.33,1.31-.94,2.46-1.83,3.45s-1.94,1.85-3.15,2.58-2.52,1.35-3.94,1.85-2.84.9-4.25,1.23-2.78.58-4.1.76-2.45.31-3.41.4c-.21.42-.39.96-.54,1.6s-.23,1.27-.23,1.88c0,1.36.54,2.41,1.62,3.16s2.57,1.12,4.46,1.12c1.1,0,2.16-.12,3.16-.37s1.96-.56,2.87-.95,1.75-.81,2.55-1.27,1.52-.91,2.18-1.35c.84-.56,1.65-1.04,2.41-1.42s1.44-.58,2.02-.58.96.15,1.12.44.25.6.25.93c0,.19,0,.37-.02.54s-.03.32-.05.44c-.12.61-.35,1.22-.7,1.83s-.8,1.14-1.34,1.58c-2.44,1.92-4.94,3.29-7.51,4.11s-5.3,1.23-8.21,1.23c-.56,0-1.22-.04-1.99-.11s-1.55-.21-2.37-.42-1.63-.52-2.43-.91-1.51-.93-2.13-1.58-1.12-1.46-1.51-2.43-.58-2.12-.58-3.48c0-1.1.15-2.33.46-3.69-.3-.05-.59-.21-.86-.47s-.4-.66-.4-1.18Zm22.01-9.74c.05-.12.07-.22.07-.32v-.32c0-.63-.23-1.11-.7-1.42s-1.03-.47-1.69-.47c-1.03,0-2.04.27-3.04.81s-1.93,1.21-2.81,2.02-1.66,1.68-2.34,2.6-1.21,1.76-1.58,2.51c1.69-.14,3.23-.37,4.64-.69s2.63-.71,3.67-1.2,1.89-1.02,2.53-1.62,1.06-1.24,1.25-1.92Z"/>
      <path class="cls-1" d="m417.43,41.57c.45-1.8,1.11-3.69,1.99-5.66s1.94-3.87,3.18-5.71,2.65-3.54,4.24-5.1,3.31-2.83,5.19-3.81c.61-.33,1.28-.57,2-.74s1.46-.25,2.21-.25,1.49.07,2.16.21,1.24.38,1.72.7.86.75,1.14,1.27.42,1.15.42,1.9c0,.56-.08,1.13-.25,1.71s-.41,1.09-.74,1.55-.74.83-1.23,1.11-1.07.42-1.72.42c-.52,0-.99-.09-1.42-.28s-.85-.4-1.25-.63c-.21-.14-.41-.26-.6-.37s-.41-.21-.67-.3c-.94.42-1.82.98-2.65,1.67s-1.61,1.46-2.32,2.3-1.37,1.75-1.97,2.71-1.14,1.92-1.62,2.88-.89,1.9-1.23,2.83-.62,1.78-.83,2.55c-.16.56-.31,1.2-.44,1.92s-.19,1.41-.19,2.09c0,.47.04.91.12,1.34s.23.8.44,1.12.49.59.84.77.79.28,1.3.28c.82,0,1.63-.11,2.44-.32s1.6-.48,2.37-.81,1.53-.71,2.27-1.14,1.46-.87,2.16-1.32c.45-.28.89-.57,1.34-.88s.87-.57,1.27-.81.77-.43,1.11-.58.64-.23.9-.23c.35,0,.68.09.98.26s.46.47.46.9c0,.3-.07.64-.21,1.02-.33.91-.77,1.73-1.34,2.46s-1.19,1.38-1.88,1.95-1.43,1.08-2.21,1.53-1.56.86-2.34,1.23c-1.45.77-2.92,1.35-4.41,1.74s-2.74.58-3.74.58c-.33,0-.71-.04-1.16-.11s-.83-.18-1.16-.32c-1.9-.82-3.28-1.92-4.15-3.3s-1.3-3.02-1.3-4.92c0-.82.06-1.68.19-2.58s.32-1.85.58-2.83Z"/>
      <path class="cls-1" d="m447.42,41.75c0-1.01.27-1.86.81-2.57s1.25-1.17,2.14-1.41c.26-.52.66-1.21,1.2-2.09s1.21-1.83,2-2.87,1.71-2.07,2.72-3.11,2.14-1.99,3.38-2.85,2.55-1.55,3.97-2.09,2.92-.81,4.52-.81c1.36,0,2.54.16,3.55.49s1.84.79,2.5,1.37,1.15,1.28,1.48,2.09.49,1.68.49,2.62c0,.8-.11,1.56-.32,2.29-.33,1.31-.94,2.46-1.83,3.45s-1.94,1.85-3.15,2.58-2.52,1.35-3.94,1.85-2.84.9-4.25,1.23-2.78.58-4.1.76-2.45.31-3.41.4c-.21.42-.39.96-.54,1.6s-.23,1.27-.23,1.88c0,1.36.54,2.41,1.62,3.16s2.57,1.12,4.46,1.12c1.1,0,2.16-.12,3.16-.37s1.96-.56,2.87-.95,1.75-.81,2.55-1.27,1.52-.91,2.18-1.35c.84-.56,1.65-1.04,2.41-1.42s1.44-.58,2.02-.58.96.15,1.12.44.25.6.25.93c0,.19,0,.37-.02.54s-.03.32-.05.44c-.12.61-.35,1.22-.7,1.83s-.8,1.14-1.34,1.58c-2.44,1.92-4.94,3.29-7.51,4.11s-5.3,1.23-8.21,1.23c-.56,0-1.22-.04-1.99-.11s-1.55-.21-2.37-.42-1.63-.52-2.43-.91-1.51-.93-2.13-1.58-1.12-1.46-1.51-2.43-.58-2.12-.58-3.48c0-1.1.15-2.33.46-3.69-.3-.05-.59-.21-.86-.47s-.4-.66-.4-1.18Zm22.01-9.74c.05-.12.07-.22.07-.32v-.32c0-.63-.23-1.11-.7-1.42s-1.03-.47-1.69-.47c-1.03,0-2.04.27-3.04.81s-1.93,1.21-2.81,2.02-1.66,1.68-2.34,2.6-1.21,1.76-1.58,2.51c1.69-.14,3.23-.37,4.64-.69s2.63-.71,3.67-1.2,1.89-1.02,2.53-1.62,1.06-1.24,1.25-1.92Z"/>
      <path class="cls-1" d="m484.19,51.7c.3-1.64.66-3.45,1.05-5.41s.81-3.96,1.23-5.98.83-4,1.23-5.94.74-3.73,1.02-5.34c-.02-.23-.04-.44-.04-.62v-.58c0-.73.05-1.45.14-2.18s.22-1.39.39-2c.26-.89.54-1.49.86-1.81s.83-.47,1.53-.47,1.22.13,1.63.4.73.63.97,1.07.39.96.46,1.53.11,1.17.11,1.78c0,.33-.01.69-.04,1.09s-.04.71-.04.95c.66-.68,1.35-1.38,2.09-2.09s1.52-1.36,2.36-1.93,1.71-1.05,2.64-1.42,1.89-.56,2.9-.56c.4,0,.79.04,1.18.11s.78.16,1.18.28c.47.12.96.28,1.46.47s.99.47,1.46.83c.77.59,1.42,1.32,1.95,2.2s.79,1.78.79,2.69c0,.35-.07.73-.21,1.14s-.33.79-.58,1.12-.53.62-.86.84-.69.33-1.09.33-.88-.1-1.46-.3-1.05-.46-1.42-.79c-.16-.14-.33-.34-.51-.6s-.34-.52-.49-.77-.29-.5-.42-.72-.23-.37-.3-.44c-.12-.02-.25-.04-.39-.05s-.27-.02-.39-.02c-1.2,0-2.33.3-3.41.91s-2.09,1.35-3.02,2.23-1.8,1.82-2.58,2.81-1.47,1.89-2.06,2.69c-.47,1.9-.99,3.92-1.56,6.06s-1.14,4.39-1.71,6.73v.88c0,.7-.02,1.42-.07,2.14s-.19,1.37-.42,1.93c-.26.35-.63.65-1.11.9s-1.04.37-1.67.37c-.98,0-1.72-.32-2.21-.97s-.74-1.4-.74-2.27c0-.4.06-.81.18-1.23Z"/>
    </g>
    <g>
      <path class="cls-1" d="m197.18,81.55c.14.9.21,1.82.21,2.76,0,.19,0,.44-.02.75-.16.04-.29.05-.37.05-.07,0-.17-.01-.3-.04-.49-1.37-1.29-2.42-2.41-3.15-1.11-.74-2.49-1.1-4.13-1.1-.87,0-1.6.1-2.2.3-1.05.36-1.98.86-2.78,1.5s-1.47,1.39-2.02,2.27-.99,1.95-1.31,3.2-.48,2.53-.48,3.84c0,2.5.38,4.56,1.14,6.19s1.8,2.79,3.13,3.48c1.32.69,2.66,1.04,4.01,1.04l.83-.02c.94-.12,1.58-.23,1.92-.33.86-.25,1.56-.53,2.12-.87.56-.33,1.1-.8,1.63-1.41s.99-1.31,1.36-2.12l.21-.07c.06,0,.15.04.26.11-.01.28-.02.46-.04.54-.49,1.97-.85,3.32-1.07,4.04-.19.05-.42.12-.7.21-1.37.47-3.21.7-5.5.7-1.85,0-3.24-.13-4.16-.38-.92-.25-1.92-.64-3.01-1.17-1.08-.53-2.04-1.23-2.86-2.11s-1.48-1.98-1.99-3.32-.76-2.79-.76-4.37c0-1.49.2-2.8.6-3.91.4-1.11,1.01-2.24,1.85-3.39.83-1.14,1.81-2.09,2.94-2.85s2.39-1.29,3.77-1.61c.97-.21,2.35-.32,4.13-.32,1.3,0,2.53.17,3.67.52,1.15.34,1.92.68,2.3,1.01Z"/>
      <path class="cls-1" d="m199.03,102.41c.16-.09.31-.14.44-.14h.4c.08,0,.22,0,.42-.02.9-.08,1.43-.16,1.6-.24.41-.22.76-.61,1.05-1.16.61-1.19,1.29-2.88,2.06-5.06.36-1.04.59-1.67.69-1.89.29-.7.57-1.43.84-2.2l1.65-4.6c.26-.72.88-2.38,1.86-4.97.25-.65.54-1.53.9-2.62l.52-.04.61.02c.5.99.95,2.06,1.33,3.2.21.61.56,1.51,1.04,2.71l2.67,7.19,1.42,3.9c.75,2.22,1.24,3.58,1.48,4.08.23.51.45.84.65,1.01.06.05.28.12.66.21.38.09.65.16.8.21.54.15.91.28,1.12.38.05.13.07.23.07.3,0,.06-.02.15-.05.26-.38.01-.64.02-.79.02-.6,0-1.65-.02-3.16-.05l-1.76-.04-2.13.03c-.14,0-.28,0-.43-.02-.15-.01-.27-.02-.38-.02h-.39c-.13-.01-.25-.05-.35-.1,0-.16.03-.32.09-.47.14-.07.27-.11.39-.12l1.85-.12c.48-.02.84-.09,1.09-.19.07-.21.11-.37.11-.47,0-.21-.15-.75-.46-1.63-.21-.58-.4-1.14-.55-1.67-.16-.53-.78-2.25-1.87-5.19-.48-.08-.9-.12-1.27-.12l-3.76.04-1.11-.02c-.4,0-.84.03-1.32.09-.15.35-.25.6-.3.75l-1.55,4.81c-.66,1.83-.98,2.84-.98,3.03,0,.11.05.28.16.53.25.07.57.13.98.19l2.39.21c.13.1.19.2.19.28,0,.06-.02.15-.05.26-.53.01-.93.02-1.21.02-.94,0-2.03-.03-3.27-.09-.57-.02-.98-.03-1.23-.03s-.67.01-1.28.03c-.4.02-.69.04-.86.04-.28,0-.64-.02-1.09-.05v-.11c0-.08.02-.19.07-.33Zm8.39-10.5c1.25.07,2.68.1,4.29.1.91,0,1.72-.03,2.41-.09-.12-.45-.25-.88-.4-1.28-.76-2.03-1.18-3.15-1.26-3.36l-1.6-4.04-.18-.31c-.07.14-.33.74-.77,1.8-.75,1.82-1.29,3.24-1.62,4.25-.15.45-.31.91-.48,1.36-.16.45-.27.76-.31.94s-.1.36-.18.55l.11.07Z"/>
      <path class="cls-1" d="m224.08,81.31v-.54c.2-.05.36-.08.47-.09l1.65-.09c1.37-.12,2.91-.22,4.61-.29.68-.02,1.75-.04,3.22-.04,1.99,0,3.45.15,4.38.44,1.35.43,2.35,1.08,3.01,1.95s.99,1.83.99,2.9c0,1.73-1.24,3.18-3.71,4.36l-.09.13c1.27.34,2.3.81,3.11,1.42.81.61,1.43,1.35,1.86,2.22.32.64.47,1.48.47,2.52,0,1.74-.79,3.29-2.38,4.65-1.59,1.36-3.78,2.04-6.57,2.04h-2.62l-2.65.09c-2.34.02-3.71.04-4.11.04s-.81-.02-1.21-.05v-.2c0-.14.03-.24.09-.3.07-.07.21-.13.4-.18,1.46-.3,2.29-.51,2.49-.62.19-.11.33-.29.4-.53.14-.47.21-1.67.21-3.6,0-.17,0-.4-.02-.66-.02-.78-.04-1.23-.04-1.34v-1.82c0-3.07-.04-5.76-.11-8.05l-.02-3.51-.02-.44c-1-.14-1.88-.23-2.64-.26-.49-.01-.89-.05-1.2-.12Zm6.96,8.84c.59.12,1.2.17,1.85.17,2.54,0,4.26-.55,5.16-1.66s1.36-2.21,1.36-3.31c0-.49-.08-.99-.24-1.5-.16-.51-.44-.96-.85-1.37-.41-.41-.91-.71-1.51-.91-1.02-.34-2.07-.51-3.14-.51-1,0-1.93.11-2.78.33-.01.24-.02.43-.02.54s.01.45.04,1c.01.35.02.7.02,1.05l-.05,2.12.02,1.26.12,2.47.02.32Zm4.14,11.9c1.16-.08,2.14-.33,2.92-.73.36-.19.79-.52,1.29-1.01.5-.48.89-1.06,1.16-1.74.28-.68.41-1.33.41-1.96,0-.48-.1-1.07-.29-1.77-.19-.7-.52-1.32-.99-1.85-.46-.53-1.15-.97-2.07-1.31-.92-.34-1.93-.52-3.03-.52-2.14,0-3.33.04-3.59.12-.01.27-.02.47-.02.59l.02.65-.02,1.31v1.49c.04,2.74.1,4.36.19,4.86.09.5.41.93.96,1.29s1.56.55,3.04.56Z"/>
      <path class="cls-1" d="m244.43,102.41c.16-.09.31-.14.44-.14h.4c.08,0,.22,0,.42-.02.9-.08,1.43-.16,1.6-.24.41-.22.76-.61,1.05-1.16.61-1.19,1.29-2.88,2.06-5.06.36-1.04.59-1.67.69-1.89.29-.7.57-1.43.84-2.2l1.65-4.6c.26-.72.88-2.38,1.86-4.97.25-.65.54-1.53.9-2.62l.52-.04.61.02c.5.99.95,2.06,1.33,3.2.21.61.56,1.51,1.04,2.71l2.67,7.19,1.42,3.9c.75,2.22,1.24,3.58,1.48,4.08.23.51.45.84.65,1.01.06.05.28.12.66.21.38.09.65.16.8.21.54.15.91.28,1.12.38.05.13.07.23.07.3,0,.06-.02.15-.05.26-.38.01-.64.02-.79.02-.6,0-1.65-.02-3.16-.05l-1.76-.04-2.13.03c-.14,0-.28,0-.43-.02-.15-.01-.27-.02-.38-.02h-.39c-.13-.01-.25-.05-.35-.1,0-.16.03-.32.09-.47.14-.07.27-.11.39-.12l1.85-.12c.48-.02.84-.09,1.09-.19.07-.21.11-.37.11-.47,0-.21-.15-.75-.46-1.63-.21-.58-.39-1.14-.55-1.67-.16-.53-.78-2.25-1.87-5.19-.48-.08-.9-.12-1.27-.12l-3.76.04-1.11-.02c-.4,0-.84.03-1.32.09-.15.35-.25.6-.3.75l-1.55,4.81c-.66,1.83-.98,2.84-.98,3.03,0,.11.05.28.16.53.25.07.57.13.98.19l2.39.21c.13.1.19.2.19.28,0,.06-.02.15-.05.26-.53.01-.93.02-1.21.02-.94,0-2.03-.03-3.27-.09-.57-.02-.98-.03-1.23-.03s-.67.01-1.28.03c-.4.02-.69.04-.86.04-.28,0-.64-.02-1.09-.05v-.11c0-.08.02-.19.07-.33Zm8.39-10.5c1.25.07,2.68.1,4.29.1.91,0,1.72-.03,2.41-.09-.12-.45-.25-.88-.4-1.28-.76-2.03-1.18-3.15-1.26-3.36l-1.6-4.04-.18-.31c-.07.14-.33.74-.77,1.8-.75,1.82-1.29,3.24-1.62,4.25-.15.45-.31.91-.47,1.36-.17.45-.27.76-.31.94s-.1.36-.18.55l.11.07Z"/>
      <path class="cls-1" d="m269.48,81.57l-.02-.84c1.82,0,3.15-.05,3.99-.14.33-.03.56-.05.69-.05.11,0,.26,0,.47.02.49.41.95.87,1.37,1.4.09.1.2.22.32.35l3.71,4.08.53.63c.75.88,1.43,1.62,2.05,2.24s1.81,1.91,3.59,3.87l4.2,4.64c.41.46.94,1.02,1.58,1.7l.02-.28c-.07-1.62-.11-2.48-.11-2.57l.07-1.05-.04-1.64v-.75c0-.48-.04-1.95-.12-4.43-.01-.34-.06-.98-.14-1.92-.08-.94-.12-1.76-.12-2.48,0-1.28-.08-2.03-.23-2.24-.11-.15-.6-.31-1.49-.47-.21-.01-.54-.05-.98-.1-.53-.02-.84-.05-.93-.09-.09-.03-.19-.13-.28-.3.02-.19.08-.36.16-.53.32-.09.63-.14.93-.14.33,0,.74.04,1.22.12.49.08.92.12,1.31.12.54,0,1.38-.04,2.51-.11.64-.05,1.09-.07,1.34-.07h.3l-.04.54c-.19.08-.45.13-.77.15s-.63.07-.91.15c-.42.13-.67.24-.76.33-.28.3-.42.61-.42.93l.19,5.53.14,2.54-.02.74.11,3.52c.07,2.4.11,4.49.11,6.26,0,.38-.02,1.22-.07,2.5l-.82.07c-.41-.47-1.82-1.94-4.24-4.41-.56-.57-.94-.97-1.14-1.21l-1.51-1.73c-.59-.64-.97-1.05-1.14-1.22s-.31-.3-.39-.38c-1.28-1.45-2.94-3.25-4.98-5.42-.55-.58-1.36-1.49-2.43-2.73-.67-.78-1.09-1.26-1.27-1.43s-.42-.37-.72-.59l-.05.59c0,2.27.06,5.41.18,9.41l.12,5.79c.01.49.04.96.09,1.42l.62.14c1.11.1,2.21.26,3.29.47.08.07.15.12.21.16l-.02.66c-.19.06-.34.09-.46.09-.13,0-.29-.01-.47-.04-1.16-.09-2.57-.14-4.24-.14-1.17,0-2.2.03-3.09.09l-.25.02c-.11,0-.26-.01-.46-.03l-.02-.53.46-.21.83-.12c.74-.11,1.28-.22,1.62-.35.22-.08.4-.2.54-.37.13-.8.19-1.98.19-3.53,0-.72-.02-2.05-.05-3.97v-2.38l-.04-4.97c-.02-2.22-.1-3.52-.23-3.92-.07-.21-.22-.4-.44-.56-.45-.32-1.03-.51-1.75-.59-.72-.08-1.19-.15-1.4-.21Zm18.47-6.74h.51c.01.13.02.22.02.28,0,1-.28,1.8-.83,2.4s-1.25.89-2.07.89c-.41,0-.84-.09-1.3-.26-.3-.1-.78-.38-1.42-.81s-1.1-.7-1.35-.8c-.36-.15-.69-.23-.98-.23-.4,0-.73.14-.99.42-.26.28-.46.83-.59,1.64h-.49c-.02-.07-.04-.13-.04-.19,0-.78.24-1.53.72-2.26.48-.72,1.21-1.08,2.2-1.08.41,0,.8.07,1.17.21.37.14.9.44,1.59.89,1.04.68,1.82,1.02,2.32,1.02.36,0,.68-.15.96-.44.28-.29.47-.85.59-1.68Z"/>
      <path class="cls-1" d="m296.57,102.41c.16-.09.31-.14.44-.14h.4c.08,0,.22,0,.42-.02.9-.08,1.44-.16,1.6-.24.41-.22.76-.61,1.05-1.16.61-1.19,1.3-2.88,2.06-5.06.36-1.04.59-1.67.69-1.89.29-.7.57-1.43.84-2.2l1.65-4.6c.26-.72.88-2.38,1.86-4.97.25-.65.54-1.53.9-2.62l.52-.04.62.02c.5.99.95,2.06,1.33,3.2.21.61.56,1.51,1.04,2.71l2.67,7.19,1.42,3.9c.75,2.22,1.24,3.58,1.48,4.08.23.51.45.84.65,1.01.06.05.28.12.66.21.38.09.65.16.8.21.54.15.91.28,1.12.38.05.13.07.23.07.3,0,.06-.02.15-.05.26-.38.01-.64.02-.79.02-.6,0-1.65-.02-3.16-.05l-1.76-.04-2.13.03c-.14,0-.28,0-.43-.02-.15-.01-.27-.02-.38-.02h-.39c-.13-.01-.25-.05-.35-.1,0-.16.03-.32.09-.47.14-.07.27-.11.39-.12l1.84-.12c.48-.02.84-.09,1.09-.19.07-.21.11-.37.11-.47,0-.21-.15-.75-.46-1.63-.21-.58-.39-1.14-.55-1.67-.16-.53-.78-2.25-1.87-5.19-.48-.08-.9-.12-1.27-.12l-3.76.04-1.11-.02c-.4,0-.84.03-1.32.09-.15.35-.25.6-.3.75l-1.55,4.81c-.66,1.83-.98,2.84-.98,3.03,0,.11.05.28.16.53.25.07.57.13.98.19l2.39.21c.13.1.19.2.19.28,0,.06-.02.15-.05.26-.53.01-.93.02-1.21.02-.94,0-2.03-.03-3.27-.09-.57-.02-.98-.03-1.23-.03s-.67.01-1.28.03c-.4.02-.69.04-.86.04-.28,0-.64-.02-1.09-.05v-.11c0-.08.02-.19.07-.33Zm8.39-10.5c1.25.07,2.68.1,4.29.1.91,0,1.72-.03,2.41-.09-.12-.45-.25-.88-.4-1.28-.76-2.03-1.18-3.15-1.26-3.36l-1.6-4.04-.17-.31c-.07.14-.33.74-.78,1.8-.75,1.82-1.29,3.24-1.62,4.25-.15.45-.31.91-.48,1.36-.16.45-.27.76-.31.94s-.1.36-.18.55l.11.07Z"/>
      <path class="cls-1" d="m335.12,81.38c.09.77.14,1.21.14,1.33l-.07,1.56c-.02.67-.05,1.09-.09,1.28-.11.05-.19.07-.26.07l-.16-.03c-.38-1.63-1.01-2.82-1.91-3.57-.9-.75-1.99-1.12-3.28-1.12s-2.43.37-3.29,1.12c-.86.75-1.28,1.62-1.28,2.61,0,.76.3,1.45.9,2.08s2.13,1.57,4.59,2.83c1.88.96,3.22,1.75,4.03,2.37.81.61,1.42,1.32,1.83,2.13s.62,1.7.62,2.7c0,1.25-.33,2.42-.98,3.52s-1.53,1.92-2.63,2.48c-1.1.55-2.56.83-4.38.83-1.58,0-3.1-.25-4.55-.75-.86-.3-1.38-.55-1.56-.74-.19-.19-.28-.38-.28-.59,0-.13.01-.29.04-.49.16-1.38.25-2.51.26-3.39.02-.55.06-.87.12-.96.05-.08.13-.12.26-.12.11,0,.19.04.25.11.06.08.11.22.13.43.13,1.43.8,2.72,2,3.85,1.2,1.13,2.55,1.7,4.06,1.7.93,0,1.78-.19,2.56-.58.78-.39,1.39-.94,1.83-1.67.44-.73.66-1.44.66-2.13,0-.95-.33-1.81-1-2.59s-2.01-1.69-4.03-2.74-3.33-1.8-3.94-2.28c-.98-.78-1.72-1.61-2.21-2.48-.36-.68-.54-1.46-.54-2.36,0-1.62.64-3,1.93-4.12,1.29-1.12,3.02-1.69,5.19-1.69,1.2,0,2.23.13,3.09.4.63.21,1.28.55,1.95,1.03Z"/>
    </g>
  </g>
</svg>